<svg id="visual" viewBox="0 0 960 540" width="960" height="540" xmlns="http://www.w3.org/2000/svg" xmlns:xlink="http://www.w3.org/1999/xlink" version="1.1"><rect x="0" y="0" width="960" height="540" fill="#CAF0F8"></rect><path d="M0 193L22.8 190.2C45.7 187.3 91.3 181.7 137 168.3C182.7 155 228.3 134 274 121.7C319.7 109.3 365.3 105.7 411.2 121.7C457 137.7 503 173.3 548.8 186.8C594.7 200.3 640.3 191.7 686 180.8C731.7 170 777.3 157 823 160.3C868.7 163.7 914.3 183.3 937.2 193.2L960 203L960 0L937.2 0C914.3 0 868.7 0 823 0C777.3 0 731.7 0 686 0C640.3 0 594.7 0 548.8 0C503 0 457 0 411.2 0C365.3 0 319.7 0 274 0C228.3 0 182.7 0 137 0C91.3 0 45.7 0 22.8 0L0 0Z" fill="#48cae4"></path><path d="M0 76L22.8 76.7C45.7 77.3 91.3 78.7 137 90.3C182.7 102 228.3 124 274 143.7C319.7 163.3 365.3 180.7 411.2 167.5C457 154.3 503 110.7 548.8 108.2C594.7 105.7 640.3 144.3 686 154C731.7 163.7 777.3 144.3 823 130.3C868.7 116.3 914.3 107.7 937.2 103.3L960 99L960 0L937.2 0C914.3 0 868.7 0 823 0C777.3 0 731.7 0 686 0C640.3 0 594.7 0 548.8 0C503 0 457 0 411.2 0C365.3 0 319.7 0 274 0C228.3 0 182.7 0 137 0C91.3 0 45.7 0 22.8 0L0 0Z" fill="#2ba4d2"></path><path d="M0 51L22.8 52.2C45.7 53.3 91.3 55.7 137 58.5C182.7 61.3 228.3 64.7 274 70.5C319.7 76.3 365.3 84.7 411.2 89.2C457 93.7 503 94.3 548.8 87.5C594.7 80.7 640.3 66.3 686 75.8C731.7 85.3 777.3 118.7 823 120.5C868.7 122.3 914.3 92.7 937.2 77.8L960 63L960 0L937.2 0C914.3 0 868.7 0 823 0C777.3 0 731.7 0 686 0C640.3 0 594.7 0 548.8 0C503 0 457 0 411.2 0C365.3 0 319.7 0 274 0C228.3 0 182.7 0 137 0C91.3 0 45.7 0 22.8 0L0 0Z" fill="#2d8dc4"></path><path d="M0 58L22.8 67.3C45.7 76.7 91.3 95.3 137 102.3C182.7 109.3 228.3 104.7 274 101.5C319.7 98.3 365.3 96.7 411.2 101.5C457 106.3 503 117.7 548.8 118.8C594.7 120 640.3 111 686 93.7C731.7 76.3 777.3 50.7 823 45.2C868.7 39.7 914.3 54.3 937.2 61.7L960 69L960 0L937.2 0C914.3 0 868.7 0 823 0C777.3 0 731.7 0 686 0C640.3 0 594.7 0 548.8 0C503 0 457 0 411.2 0C365.3 0 319.7 0 274 0C228.3 0 182.7 0 137 0C91.3 0 45.7 0 22.8 0L0 0Z" fill="#2ba4d2"></path><path d="M0 31L22.8 26.7C45.7 22.3 91.3 13.7 137 8.7C182.7 3.7 228.3 2.3 274 2C319.7 1.7 365.3 2.3 411.2 9.7C457 17 503 31 548.8 38.7C594.7 46.3 640.3 47.7 686 42.7C731.7 37.7 777.3 26.3 823 32.7C868.7 39 914.3 63 937.2 75L960 87L960 0L937.2 0C914.3 0 868.7 0 823 0C777.3 0 731.7 0 686 0C640.3 0 594.7 0 548.8 0C503 0 457 0 411.2 0C365.3 0 319.7 0 274 0C228.3 0 182.7 0 137 0C91.3 0 45.7 0 22.8 0L0 0Z" fill="#48cae4"></path></svg>